<svg xmlns="http://www.w3.org/2000/svg" xmlns:xlink="http://www.w3.org/1999/xlink" viewBox="0 0 1228.81 366.31"><defs><style>.cls-1{clip-path:url(#clip-path);}.cls-2{clip-path:url(#clip-path-2);}.cls-3{clip-path:url(#clip-path-3);}.cls-4{clip-path:url(#clip-path-4);}.cls-5{clip-path:url(#clip-path-5);}</style><clipPath id="clip-path"><path d="M346.43,18.58H331.57A21.1,21.1,0,0,0,313,33.67l-14.27,48,26,90.11s1.78,6.32,5.91,2.75a27.94,27.94,0,0,0,1.15-2.82L372.67,33.67a11.37,11.37,0,0,0-10.1-15.09Z"/></clipPath><clipPath id="clip-path-2"><path d="M92.67,82.86a5.63,5.63,0,0,0-2.23,3.72L19.06,332.87a11.86,11.86,0,0,0-.48,1.84v3.78a11,11,0,0,0,2.07,4.8,11.16,11.16,0,0,0,8.27,4.44h30.5a20.69,20.69,0,0,0,18.24-14.86l45.67-157.59L97.39,86.39a7.46,7.46,0,0,0-1.52-2.86,2.74,2.74,0,0,0-2.05-.92,2.9,2.9,0,0,0-1.15.25"/></clipPath><clipPath id="clip-path-3"><path d="M219.09,54.55a23,23,0,0,0-1.19,2.86L187.06,163.57l26.6,90.52s2.42,7.1,5.91,2.75a22.46,22.46,0,0,0,1.19-2.82l30.69-105.68L225,57.3s-1-3.83-3.5-3.83a3.8,3.8,0,0,0-2.41,1.08"/></clipPath><clipPath id="clip-path-4"><path d="M238.56,37.08c-12.26.41-17.43,12.34-17.43,12.34,3.72-2.9,5.91,2.75,5.91,2.75l36.12,124.37a21.1,21.1,0,0,0,18.58,15.09h29.73c12.26-.41,17.42-12.34,17.42-12.34-3.68,3.09-5.9-2.75-5.9-2.75L286.87,52.17a21.12,21.12,0,0,0-18.58-15.09Z"/></clipPath><clipPath id="clip-path-5"><path d="M111.18,66.51c-12.26.41-17.43,12.34-17.43,12.34,3.79-2.9,5.91,2.75,5.91,2.75l52,177.51a21.13,21.13,0,0,0,18.58,15.09H200c12.26-.41,17.43-12.34,17.43-12.34-3.79,2.49-5.91-2.75-5.91-2.75l-52-177.51a21.13,21.13,0,0,0-18.58-15.09Z"/></clipPath></defs><title>Asset 1</title><g id="Layer_2" data-name="Layer 2"><g id="Lager_1" data-name="Lager 1"><path d="M421.82,262.91l-1.11-3.63h-.18a10.59,10.59,0,0,1-3.8,3.24,11.84,11.84,0,0,1-4.89.86,8.27,8.27,0,0,1-6-2.07,7.74,7.74,0,0,1-2.16-5.86,6.9,6.9,0,0,1,3-6.08c2-1.36,5-2.11,9.11-2.23l4.5-.15v-1.38a5.27,5.27,0,0,0-1.17-3.74,4.75,4.75,0,0,0-3.61-1.23,12.33,12.33,0,0,0-3.84.59,27.84,27.84,0,0,0-3.53,1.39l-1.79-4A18.93,18.93,0,0,1,411,237a21,21,0,0,1,4.76-.58q5,0,7.5,2.17c1.68,1.44,2.53,3.71,2.53,6.8v17.54Zm-8.24-3.77a6.87,6.87,0,0,0,4.84-1.68,6.12,6.12,0,0,0,1.82-4.72v-2.26l-3.34.14a11.38,11.38,0,0,0-5.69,1.31,4,4,0,0,0-1.77,3.56,3.48,3.48,0,0,0,1,2.7A4.44,4.44,0,0,0,413.58,259.14Z"/><path d="M473.64,245.37q0,8.52-4.73,13t-13.63,4.51h-9.63V228.49h10.64q8.22,0,12.79,4.42T473.64,245.37Zm-5.93.19q0-12.36-11.56-12.36h-4.87v25h4Q467.72,258.18,467.71,245.56Z"/><path d="M491.07,263.38q-6.07,0-9.5-3.54t-3.42-9.76q0-6.37,3.17-10a11,11,0,0,1,8.74-3.65,10.74,10.74,0,0,1,8.15,3.13q3,3.14,3,8.62v3H483.84a8.6,8.6,0,0,0,2.05,5.83,7.17,7.17,0,0,0,5.44,2,20.15,20.15,0,0,0,4.3-.43,22.93,22.93,0,0,0,4.27-1.45v4.5a16.73,16.73,0,0,1-4.1,1.36A24.78,24.78,0,0,1,491.07,263.38Zm-1-22.79a5.58,5.58,0,0,0-4.23,1.67,8,8,0,0,0-1.89,4.88h11.82a7.19,7.19,0,0,0-1.56-4.89A5.29,5.29,0,0,0,490.06,240.59Z"/><path d="M512.34,262.91h-5.53V226.28h5.53Z"/><path d="M542.53,249.84q0,6.39-3.27,10t-9.11,3.58a12.48,12.48,0,0,1-6.45-1.65,10.82,10.82,0,0,1-4.31-4.73,16,16,0,0,1-1.51-7.16q0-6.33,3.25-9.88t9.16-3.56a11.46,11.46,0,0,1,9,3.64Q542.52,243.67,542.53,249.84Zm-18.95,0q0,9,6.66,9t6.6-9q0-8.91-6.64-8.92a5.65,5.65,0,0,0-5.05,2.31A11.68,11.68,0,0,0,523.58,249.84Z"/><path d="M547.6,230a3.05,3.05,0,0,1,.81-2.28,3.15,3.15,0,0,1,2.32-.8,3.05,3.05,0,0,1,2.27.8,3.51,3.51,0,0,1,0,4.51,3.06,3.06,0,0,1-2.27.81,3.15,3.15,0,0,1-2.32-.81A3,3,0,0,1,547.6,230Zm5.86,32.94h-5.53v-26h5.53Z"/><path d="M570.27,258.91a13.27,13.27,0,0,0,4.05-.64v4.17a10.89,10.89,0,0,1-2.37.67,16.25,16.25,0,0,1-3,.27q-7.86,0-7.86-8.29v-14h-3.56v-2.45l3.82-2,1.88-5.51h3.41v5.79h7.42v4.19h-7.42V255a3.89,3.89,0,0,0,1,2.95A3.61,3.61,0,0,0,570.27,258.91Z"/><path d="M589.67,258.91a13.27,13.27,0,0,0,4.05-.64v4.17a11,11,0,0,1-2.36.67,16.44,16.44,0,0,1-3,.27q-7.86,0-7.86-8.29v-14h-3.56v-2.45l3.82-2,1.88-5.51h3.42v5.79h7.41v4.19h-7.41V255a3.88,3.88,0,0,0,1,2.95A3.61,3.61,0,0,0,589.67,258.91Z"/><path d="M609.24,263.38q-6.07,0-9.5-3.54t-3.43-9.76q0-6.37,3.18-10a11,11,0,0,1,8.73-3.65,10.72,10.72,0,0,1,8.15,3.13q3,3.14,3,8.62v3H602a8.55,8.55,0,0,0,2,5.83,7.14,7.14,0,0,0,5.43,2,20.09,20.09,0,0,0,4.3-.43,23,23,0,0,0,4.28-1.45v4.5A16.87,16.87,0,0,1,614,263,24.85,24.85,0,0,1,609.24,263.38Zm-1-22.79a5.57,5.57,0,0,0-4.22,1.67,8,8,0,0,0-1.9,4.88h11.82a7.24,7.24,0,0,0-1.55-4.89A5.32,5.32,0,0,0,608.22,240.59Z"/><path d="M650.51,236.4a9,9,0,0,1,7.59,3.53q2.73,3.54,2.72,9.91t-2.75,10a10,10,0,0,1-15.33,0h-.38l-1,3.08h-4.14V226.28h5.53V235c0,.64,0,1.6-.09,2.87s-.11,2.08-.14,2.42h.23A8.81,8.81,0,0,1,650.51,236.4Zm-1.44,4.52c-2.22,0-3.83.66-4.81,2s-1.49,3.5-1.52,6.58v.37q0,4.75,1.51,6.89t4.92,2.13a5,5,0,0,0,4.46-2.33,12.37,12.37,0,0,0,1.52-6.73Q655.15,240.92,649.07,240.92Z"/><path d="M684.81,262.91,684,259.5h-.28a7.9,7.9,0,0,1-3.28,2.85,11,11,0,0,1-4.87,1q-4.73,0-7.06-2.35t-2.33-7.14v-17h5.58v16.06a7,7,0,0,0,1.22,4.48,4.68,4.68,0,0,0,3.84,1.5,6.1,6.1,0,0,0,5.12-2.09q1.63-2.07,1.64-7v-13h5.56v26Z"/><path d="M714,255.49a6.79,6.79,0,0,1-2.77,5.85q-2.79,2-8,2a18.67,18.67,0,0,1-8.36-1.58V257a20.41,20.41,0,0,0,8.55,2.12c3.4,0,5.11-1,5.11-3.08a2.43,2.43,0,0,0-.57-1.65,6.76,6.76,0,0,0-1.86-1.36,30.59,30.59,0,0,0-3.6-1.6q-4.5-1.75-6.09-3.49a6.45,6.45,0,0,1-1.59-4.52,5.93,5.93,0,0,1,2.7-5.19,12.78,12.78,0,0,1,7.33-1.85,20.78,20.78,0,0,1,8.69,1.86l-1.79,4.17a19.38,19.38,0,0,0-7.09-1.75c-2.92,0-4.38.84-4.38,2.5a2.48,2.48,0,0,0,1.15,2.07,24.83,24.83,0,0,0,5,2.33,23,23,0,0,1,4.68,2.29,6.79,6.79,0,0,1,2.17,2.39A6.91,6.91,0,0,1,714,255.49Z"/><path d="M718.73,230a3.05,3.05,0,0,1,.81-2.28,3.16,3.16,0,0,1,2.32-.8,3.09,3.09,0,0,1,2.28.8,3.54,3.54,0,0,1,0,4.51,3.1,3.1,0,0,1-2.28.81,3.17,3.17,0,0,1-2.32-.81A3,3,0,0,1,718.73,230Zm5.86,32.94h-5.53v-26h5.53Z"/><path d="M754.36,262.91H748.8v-16a7,7,0,0,0-1.21-4.5,4.68,4.68,0,0,0-3.85-1.48q-3.51,0-5.13,2.07T737,249.94v13h-5.53v-26h4.33l.78,3.41h.28a7.84,7.84,0,0,1,3.34-2.87,11.32,11.32,0,0,1,4.81-1q9.36,0,9.37,9.53Z"/><path d="M772.6,263.38q-6.08,0-9.5-3.54t-3.43-9.76q0-6.37,3.18-10a11,11,0,0,1,8.74-3.65,10.71,10.71,0,0,1,8.14,3.13c2,2.09,3,5,3,8.62v3H765.37a8.55,8.55,0,0,0,2,5.83,7.17,7.17,0,0,0,5.44,2,20.15,20.15,0,0,0,4.3-.43,22.93,22.93,0,0,0,4.27-1.45v4.5a16.87,16.87,0,0,1-4.1,1.36A24.85,24.85,0,0,1,772.6,263.38Zm-1-22.79a5.58,5.58,0,0,0-4.23,1.67,8,8,0,0,0-1.89,4.88h11.81a7.19,7.19,0,0,0-1.55-4.89A5.3,5.3,0,0,0,771.59,240.59Z"/><path d="M806,255.49a6.8,6.8,0,0,1-2.78,5.85c-1.85,1.36-4.51,2-8,2a18.7,18.7,0,0,1-8.36-1.58V257a20.41,20.41,0,0,0,8.55,2.12c3.41,0,5.11-1,5.11-3.08a2.43,2.43,0,0,0-.57-1.65,6.54,6.54,0,0,0-1.85-1.36,31.65,31.65,0,0,0-3.61-1.6c-3-1.17-5-2.33-6.08-3.49a6.45,6.45,0,0,1-1.59-4.52,5.94,5.94,0,0,1,2.69-5.19,12.82,12.82,0,0,1,7.34-1.85,20.81,20.81,0,0,1,8.69,1.86l-1.79,4.17a19.43,19.43,0,0,0-7.09-1.75c-2.92,0-4.38.84-4.38,2.5a2.5,2.5,0,0,0,1.14,2.07,24.83,24.83,0,0,0,5,2.33,23.44,23.44,0,0,1,4.69,2.29,6.37,6.37,0,0,1,2.87,5.62Z"/><path d="M828.89,255.49a6.8,6.8,0,0,1-2.78,5.85q-2.77,2-8,2a18.7,18.7,0,0,1-8.36-1.58V257a20.45,20.45,0,0,0,8.55,2.12c3.41,0,5.11-1,5.11-3.08a2.48,2.48,0,0,0-.56-1.65,6.76,6.76,0,0,0-1.86-1.36,31.65,31.65,0,0,0-3.61-1.6c-3-1.17-5-2.33-6.08-3.49a6.45,6.45,0,0,1-1.59-4.52,5.94,5.94,0,0,1,2.69-5.19,12.84,12.84,0,0,1,7.34-1.85,20.81,20.81,0,0,1,8.69,1.86l-1.79,4.17a19.43,19.43,0,0,0-7.09-1.75c-2.92,0-4.38.84-4.38,2.5a2.5,2.5,0,0,0,1.14,2.07,24.83,24.83,0,0,0,5,2.33,23.44,23.44,0,0,1,4.69,2.29,6.76,6.76,0,0,1,2.16,2.39A6.91,6.91,0,0,1,828.89,255.49Z"/><path d="M471.65,121.55a3,3,0,0,1,3-2.07c2.07,0,2.07,1.41,2.29,3.27l6.86,64.3c.11,1,.22,1.85.22,2.51,0,1.2-.54,1.85-2.07,1.85s-2.07-.65-2.18-2.07l-6.65-61.69L447.13,184c-.54,1.2-1.2,2.29-2.61,2.29-1,0-1.86-.54-2.62-2.29l-25.4-56.35-7.08,61.69a1.92,1.92,0,0,1-2.18,2.07,1.81,1.81,0,0,1-2.07-2c0-.43.11-1.31.22-2.18l7.74-64.85c.21-1.53.32-2.94,2.39-2.94,1.2,0,2.07.54,2.73,2.07l26.37,58.53Z"/><path d="M540.21,162.31h-27l-10.36,27c-.54,1.31-1.09,2.07-2.5,2.07s-1.86-.54-1.86-1.42a4.46,4.46,0,0,1,.44-1.63l25.72-66.81a2.56,2.56,0,0,1,5,0l24.85,66.81a5.14,5.14,0,0,1,.43,1.63c0,.77-.54,1.42-2.07,1.42-1.31,0-2.07-.54-2.61-2.07Zm-25.62-3.71h24.2l-11.88-32Z"/><path d="M577.15,188.9a3,3,0,0,1-.32,1.75,2.64,2.64,0,0,1-3.71,0,3,3,0,0,1-.32-1.75V124c0-2.29,0-3.38,3.7-3.93a62.61,62.61,0,0,1,8.5-.54c5.78,0,11.45.76,16.24,3.27,5.67,2.94,9,7.84,9,15.47,0,9.16-4.91,16.14-15.91,19.19l22.34,31.06c1.09,1.52,1,2.94-1.42,2.94-1.85,0-2.61-.87-3.49-2.18l-15.58-21.8c-3.27-4.57-6.22-9.15-6.22-9.15a59.78,59.78,0,0,1-8.28.54,36,36,0,0,1-4.58-.22Zm0-34a46.27,46.27,0,0,0,4.91.22c16.24,0,23.43-6.43,23.43-16.35,0-12-10.24-15.59-20.81-15.59a52.31,52.31,0,0,0-7.53.55Z"/><path d="M639.71,188.9a3,3,0,0,1-.33,1.75,2.63,2.63,0,0,1-3.7,0,3,3,0,0,1-.33-1.75V122a2.94,2.94,0,0,1,.33-1.74,2.63,2.63,0,0,1,3.7,0,2.94,2.94,0,0,1,.33,1.74Zm41.31-.65c.76.77,1.09,1.31,1.09,1.85,0,.88-.76,1.31-2.18,1.31-1.74,0-2.72-.65-4.14-2.18l-30.63-33.68c-1-1.09-1.42-1.74-1.42-2.5a3.78,3.78,0,0,1,1.31-2.51l26.6-28.88c1-1.09,2-2.18,3.7-2.18,1.2,0,1.86.43,1.86,1.2s-.44,1.19-1.31,2.18l-27.58,29.75Z"/><path d="M701.83,150.32h20.93a3.52,3.52,0,0,1,1.86.33,1.66,1.66,0,0,1,.76,1.53,1.73,1.73,0,0,1-.76,1.63,3.52,3.52,0,0,1-1.86.33H701.83v32.8h28.56a3.52,3.52,0,0,1,1.86.33,1.66,1.66,0,0,1,.76,1.53,1.73,1.73,0,0,1-.76,1.63,3.52,3.52,0,0,1-1.86.33H699.66c-1.64,0-2.18-.77-2.18-2.18V122.42c0-1.42.54-2.18,2.18-2.18h27a3.5,3.5,0,0,1,1.85.33,1.64,1.64,0,0,1,.76,1.52,1.73,1.73,0,0,1-.76,1.64,3.6,3.6,0,0,1-1.85.32H701.83Z"/><path d="M772.57,188.9a3,3,0,0,1-.33,1.75,2.64,2.64,0,0,1-3.71,0,3,3,0,0,1-.32-1.75V124.05H745a3.58,3.58,0,0,1-1.85-.32,1.64,1.64,0,0,1-.76-1.53,1.7,1.7,0,0,1,.76-1.63,3.48,3.48,0,0,1,1.85-.33h50.79a3.52,3.52,0,0,1,1.86.33,1.64,1.64,0,0,1,.76,1.52,1.73,1.73,0,0,1-.76,1.64,3.62,3.62,0,0,1-1.86.32H772.57Z"/><path d="M865.21,183.35c0,2.72-.76,3.7-6,5.55a50.53,50.53,0,0,1-17,2.95c-21,0-37.71-12.32-37.71-36.95,0-26.6,19.51-36.4,37.28-36.4a40.47,40.47,0,0,1,19.61,4.68c3,1.64,3.82,2.73,3.82,3.6a2.31,2.31,0,0,1-2,2.07c-1.31,0-3.06-2.07-7.85-3.92a39.7,39.7,0,0,0-14.17-2.51c-15,0-32,8.17-32,31.94,0,22.23,14.93,33.57,33.13,33.57a43.71,43.71,0,0,0,18.53-4V167.76a3,3,0,0,1,.32-1.74,2.62,2.62,0,0,1,3.71,0,2.92,2.92,0,0,1,.33,1.74Z"/><path d="M892.89,188.9a3,3,0,0,1-.33,1.75,2.63,2.63,0,0,1-3.7,0,3,3,0,0,1-.33-1.75V124c0-2.29,0-3.38,3.71-3.93a62.61,62.61,0,0,1,8.5-.54c5.77,0,11.44.76,16.24,3.27,5.67,2.94,9,7.84,9,15.47,0,9.16-4.9,16.14-15.91,19.19l22.34,31.06c1.1,1.52,1,2.94-1.41,2.94-1.85,0-2.62-.87-3.49-2.18L912,167.43c-3.28-4.57-6.22-9.15-6.22-9.15a60,60,0,0,1-8.28.54,36,36,0,0,1-4.58-.22Zm0-34a46,46,0,0,0,4.91.22c16.24,0,23.43-6.43,23.43-16.35,0-12-10.24-15.59-20.82-15.59a52.25,52.25,0,0,0-7.52.55Z"/><path d="M987,162.31h-27l-10.36,27c-.54,1.31-1.09,2.07-2.51,2.07s-1.85-.54-1.85-1.42a4.46,4.46,0,0,1,.44-1.63l25.72-66.81a2.55,2.55,0,0,1,5,0l24.86,66.81a5.42,5.42,0,0,1,.43,1.63c0,.77-.54,1.42-2.07,1.42-1.31,0-2.07-.54-2.61-2.07Zm-25.62-3.71h24.2l-11.88-32Z"/><path d="M1062.7,121.55c.54-1.31,1.08-2.07,2.5-2.07s1.86.65,1.86,1.52a3.71,3.71,0,0,1-.33,1.31l-25.83,67a2.56,2.56,0,0,1-5,0l-25-67a5.1,5.1,0,0,1-.32-1.42c0-.87.76-1.41,2-1.41a2.77,2.77,0,0,1,2.72,2.07l23.33,62.78Z"/><path d="M1091.14,188.9a3,3,0,0,1-.33,1.75,2.63,2.63,0,0,1-3.7,0,3,3,0,0,1-.33-1.75V122a2.94,2.94,0,0,1,.33-1.74,2.63,2.63,0,0,1,3.7,0,2.94,2.94,0,0,1,.33,1.74Z"/><path d="M1138.77,188.9a3,3,0,0,1-.33,1.75,2.13,2.13,0,0,1-1.85.76,2.1,2.1,0,0,1-1.85-.76,3,3,0,0,1-.33-1.75V124.05h-23.22a3.58,3.58,0,0,1-1.85-.32,1.66,1.66,0,0,1-.76-1.53,1.72,1.72,0,0,1,.76-1.63,3.48,3.48,0,0,1,1.85-.33H1162a3.5,3.5,0,0,1,1.85.33,1.64,1.64,0,0,1,.76,1.52,1.73,1.73,0,0,1-.76,1.64,3.6,3.6,0,0,1-1.85.32h-23.22Z"/><path d="M1223.45,121.66c.77-1.2,1.64-2.18,3.27-2.18,1.09,0,1.75.43,1.75,1.3a4.51,4.51,0,0,1-.87,2.08l-24.75,39.89V188.9a3,3,0,0,1-.32,1.75,2.64,2.64,0,0,1-3.71,0,3,3,0,0,1-.33-1.75V162.75l-24.08-39.89a4.93,4.93,0,0,1-.88-2.08c0-.87.76-1.3,2.07-1.3,1.64,0,2.4.65,3.27,2.18l22,36.84Z"/><path d="M346.43,18.58H331.57A21.1,21.1,0,0,0,313,33.67l-14.27,48,26,90.11s1.78,6.32,5.91,2.75a27.94,27.94,0,0,0,1.15-2.82L372.67,33.67a11.37,11.37,0,0,0-10.1-15.09Z"/><g class="cls-1"><rect x="280.14" width="111.74" height="194.24"/></g><path d="M92.67,82.86a5.63,5.63,0,0,0-2.23,3.72L19.06,332.87a11.86,11.86,0,0,0-.48,1.84v3.78a11,11,0,0,0,2.07,4.8,11.16,11.16,0,0,0,8.27,4.44h30.5a20.69,20.69,0,0,0,18.24-14.86l45.67-157.59L97.39,86.39a7.46,7.46,0,0,0-1.52-2.86,2.74,2.74,0,0,0-2.05-.92,2.9,2.9,0,0,0-1.15.25"/><g class="cls-2"><rect y="64.04" width="141.91" height="302.28"/></g><path d="M219.09,54.55a23,23,0,0,0-1.19,2.86L187.06,163.57l26.6,90.52s2.42,7.1,5.91,2.75a22.46,22.46,0,0,0,1.19-2.82l30.69-105.68L225,57.3s-1-3.83-3.5-3.83a3.8,3.8,0,0,0-2.41,1.08"/><g class="cls-3"><rect x="168.48" y="34.89" width="101.56" height="241.94"/></g><path d="M238.56,37.08c-12.26.41-17.43,12.34-17.43,12.34,3.72-2.9,5.91,2.75,5.91,2.75l36.12,124.37a21.1,21.1,0,0,0,18.58,15.09h29.73c12.26-.41,17.42-12.34,17.42-12.34-3.68,3.09-5.9-2.75-5.9-2.75L286.87,52.17a21.12,21.12,0,0,0-18.58-15.09Z"/><g class="cls-4"><rect x="202.55" y="18.5" width="144.92" height="191.7"/></g><path d="M111.18,66.51c-12.26.41-17.43,12.34-17.43,12.34,3.79-2.9,5.91,2.75,5.91,2.75l52,177.51a21.13,21.13,0,0,0,18.58,15.09H200c12.26-.41,17.43-12.34,17.43-12.34-3.79,2.49-5.91-2.75-5.91-2.75l-52-177.51a21.13,21.13,0,0,0-18.58-15.09Z"/><g class="cls-5"><rect x="75.17" y="47.93" width="160.82" height="244.84"/></g><path d="M471.74,121.54a3,3,0,0,1,2.95-2.07c2.07,0,2.07,1.41,2.29,3.27l6.86,64.33c.11,1,.22,1.85.22,2.5,0,1.2-.54,1.86-2.07,1.86s-2.07-.66-2.18-2.07l-6.65-61.72-26,56.37c-.55,1.2-1.2,2.29-2.62,2.29-1,0-1.85-.54-2.61-2.29l-25.41-56.37-7.09,61.72a1.92,1.92,0,0,1-2.18,2.07,1.82,1.82,0,0,1-2.07-2c0-.43.11-1.3.22-2.18l7.74-64.87c.22-1.53.33-2.94,2.4-2.94,1.2,0,2.07.54,2.73,2.07l26.38,58.55Z"/><path d="M540.32,162.32h-27l-10.36,27c-.54,1.3-1.09,2.07-2.51,2.07s-1.85-.55-1.85-1.42a4.5,4.5,0,0,1,.44-1.64l25.73-66.83a2.55,2.55,0,0,1,5,0l24.86,66.83A5.23,5.23,0,0,1,555,190c0,.76-.55,1.42-2.07,1.42-1.31,0-2.07-.55-2.62-2.07Zm-25.62-3.71h24.2L527,126.55Z"/><path d="M577.28,188.92a2.92,2.92,0,0,1-.33,1.74,2.62,2.62,0,0,1-3.71,0,3,3,0,0,1-.32-1.74v-65c0-2.29,0-3.38,3.7-3.93a62.66,62.66,0,0,1,8.51-.54c5.77,0,11.44.76,16.24,3.27,5.67,2.94,9,7.85,9,15.48,0,9.16-4.9,16.14-15.92,19.19l22.35,31.07c1.09,1.53,1,3-1.41,3-1.86,0-2.62-.88-3.49-2.18l-15.59-21.81c-3.27-4.58-6.22-9.16-6.22-9.16a59,59,0,0,1-8.29.55,35.76,35.76,0,0,1-4.57-.22Zm0-34a45.94,45.94,0,0,0,4.9.22c16.25,0,23.44-6.43,23.44-16.36,0-12-10.24-15.59-20.82-15.59a52.25,52.25,0,0,0-7.52.55Z"/><path d="M639.85,188.92a3,3,0,0,1-.32,1.74,2.62,2.62,0,0,1-3.71,0,2.92,2.92,0,0,1-.33-1.74V122a2.94,2.94,0,0,1,.33-1.74,2.64,2.64,0,0,1,3.71,0,3,3,0,0,1,.32,1.74Zm41.33-.66c.76.77,1.09,1.31,1.09,1.86,0,.87-.77,1.31-2.18,1.31-1.75,0-2.73-.66-4.15-2.18l-30.63-33.69c-1-1.09-1.42-1.75-1.42-2.51a3.74,3.74,0,0,1,1.31-2.51l26.6-28.89c1-1.09,2-2.18,3.71-2.18,1.2,0,1.85.43,1.85,1.2s-.44,1.2-1.31,2.18l-27.58,29.76Z"/><path d="M702,150.32h20.93a3.52,3.52,0,0,1,1.86.33,1.66,1.66,0,0,1,.76,1.53,1.73,1.73,0,0,1-.76,1.63,3.52,3.52,0,0,1-1.86.33H702V187h28.57a3.6,3.6,0,0,1,1.85.32,1.67,1.67,0,0,1,.76,1.53,1.74,1.74,0,0,1-.76,1.64,3.6,3.6,0,0,1-1.85.32H699.82c-1.64,0-2.18-.76-2.18-2.18V122.41c0-1.42.54-2.18,2.18-2.18h27a3.48,3.48,0,0,1,1.85.33,1.63,1.63,0,0,1,.77,1.52,1.72,1.72,0,0,1-.77,1.64,3.48,3.48,0,0,1-1.85.33H702Z"/><path d="M772.76,188.92a2.92,2.92,0,0,1-.33,1.74,2.62,2.62,0,0,1-3.71,0,2.92,2.92,0,0,1-.33-1.74V124.05H745.17a3.48,3.48,0,0,1-1.85-.33,1.65,1.65,0,0,1-.77-1.53,1.7,1.7,0,0,1,.77-1.63,3.48,3.48,0,0,1,1.85-.33H796a3.48,3.48,0,0,1,1.85.33,1.63,1.63,0,0,1,.77,1.52,1.72,1.72,0,0,1-.77,1.64,3.48,3.48,0,0,1-1.85.33H772.76Z"/><path d="M865.43,183.36c0,2.72-.76,3.71-6,5.56a50.69,50.69,0,0,1-17,2.94c-21,0-37.72-12.32-37.72-37,0-26.6,19.51-36.41,37.29-36.41a40.51,40.51,0,0,1,19.62,4.68c2.95,1.64,3.82,2.73,3.82,3.6a2.31,2.31,0,0,1-2,2.07c-1.31,0-3.06-2.07-7.86-3.92a39.65,39.65,0,0,0-14.17-2.51c-15,0-32.05,8.18-32.05,32,0,22.24,14.93,33.58,33.14,33.58a43.73,43.73,0,0,0,18.54-4V167.77a3,3,0,0,1,.32-1.75,2.64,2.64,0,0,1,3.71,0,3,3,0,0,1,.33,1.75Z"/><path d="M893.12,188.92a2.92,2.92,0,0,1-.33,1.74,2.61,2.61,0,0,1-3.7,0,2.92,2.92,0,0,1-.33-1.74v-65c0-2.29,0-3.38,3.71-3.93a62.61,62.61,0,0,1,8.5-.54c5.78,0,11.45.76,16.25,3.27,5.66,2.94,9,7.85,9,15.48,0,9.16-4.9,16.14-15.91,19.19l22.35,31.07c1.09,1.53,1,3-1.42,3-1.85,0-2.62-.88-3.49-2.18L912.2,167.44c-3.27-4.58-6.22-9.16-6.22-9.16a58.72,58.72,0,0,1-8.28.55,36,36,0,0,1-4.58-.22Zm0-34a46,46,0,0,0,4.91.22c16.24,0,23.44-6.43,23.44-16.36,0-12-10.25-15.59-20.83-15.59a52.25,52.25,0,0,0-7.52.55Z"/><path d="M987.21,162.32h-27l-10.36,27c-.55,1.3-1.09,2.07-2.51,2.07s-1.85-.55-1.85-1.42a4.64,4.64,0,0,1,.43-1.64l25.74-66.83a2.55,2.55,0,0,1,5,0l24.86,66.83a5.23,5.23,0,0,1,.44,1.64c0,.76-.55,1.42-2.07,1.42-1.31,0-2.08-.55-2.62-2.07Zm-25.62-3.71h24.2l-11.88-32.06Z"/><path d="M1063,121.54c.55-1.31,1.09-2.07,2.51-2.07s1.85.65,1.85,1.52a3.88,3.88,0,0,1-.32,1.31l-25.84,67.06a2.56,2.56,0,0,1-5,0l-25-67.06a4.76,4.76,0,0,1-.32-1.42c0-.87.76-1.41,2-1.41a2.77,2.77,0,0,1,2.72,2.07l23.34,62.8Z"/><path d="M1091.43,188.92a3,3,0,0,1-.32,1.74,2.62,2.62,0,0,1-3.71,0,3,3,0,0,1-.32-1.74V122a3,3,0,0,1,.32-1.74,2.64,2.64,0,0,1,3.71,0,3,3,0,0,1,.32,1.74Z"/><path d="M1139.08,188.92a2.92,2.92,0,0,1-.33,1.74,2.61,2.61,0,0,1-3.7,0,2.92,2.92,0,0,1-.33-1.74V124.05H1111.5a3.52,3.52,0,0,1-1.86-.33,1.66,1.66,0,0,1-.76-1.53,1.72,1.72,0,0,1,.76-1.63,3.52,3.52,0,0,1,1.86-.33h50.81a3.5,3.5,0,0,1,1.85.33,1.64,1.64,0,0,1,.76,1.52,1.73,1.73,0,0,1-.76,1.64,3.5,3.5,0,0,1-1.85.33h-23.23Z"/><path d="M1223.79,121.65c.77-1.2,1.64-2.18,3.27-2.18,1.1,0,1.75.43,1.75,1.3a4.51,4.51,0,0,1-.87,2.08l-24.75,39.9v26.17a2.92,2.92,0,0,1-.33,1.74,2.62,2.62,0,0,1-3.71,0,3,3,0,0,1-.32-1.74V162.75l-24.1-39.9a4.83,4.83,0,0,1-.87-2.08c0-.87.76-1.3,2.07-1.3,1.63,0,2.4.65,3.27,2.18l22,36.85Z"/></g></g></svg>